<svg id="Layer_1" data-name="Layer 1" xmlns="http://www.w3.org/2000/svg" viewBox="0 0 240 240"><defs><style>.cls-1{fill:none;stroke:#FFFFFF;stroke-linecap:round;stroke-linejoin:round;stroke-width:4px;}</style></defs><title>06-UNIVERSAL-SYMBOLS-CONCEPTS-B-YELLO</title><path class="cls-1" d="M91.6,185.11l15.54-15.78c3.89-3.89,9.81-4.29,13.22-.88h0c3.41,3.41,3,9.33-.88,13.22L96.75,204.4l9.46-9.48s-13.65,13.22-24.58,24.59c-8.34,8.68-16.2,10.61-25.77,12.08-10.22,1.57-20.06-5.31-27.44-12.68-12.09-12.1-15.17-21.07-5.05-35h0a13.7,13.7,0,0,0,3.82-9.06l1.52-46.18A10.63,10.63,0,0,1,40,120.22h0a8.53,8.53,0,0,1,7.39,10.51l-1.54,17.54c-.13,3.39-1.35,9.82-.31,8.79l14.36-14.18,22-22.33c3.9-3.9,9.82-4.29,13.23-.88h0c3.41,3.41,3,9.33-.88,13.22L71.48,155.62l11.32-11,22-22.33c3.89-3.89,9.81-4.29,13.22-.88h0c3.41,3.41,3,9.33-.88,13.22L94.4,157.38,84.23,168.06l25.26-25.77c3.89-3.89,9.81-4.29,13.22-.88h0c3.41,3.41,3,9.33-.88,13.23L99.1,177.36"/><path class="cls-1" d="M145.92,55.55,130.38,71.32c-3.89,3.9-9.81,4.29-13.22.89h0c-3.41-3.41-3-9.33.88-13.23l22.73-22.72-9.46,9.48S145,32.52,155.89,21.15c8.34-8.68,16.2-10.61,25.77-12.09,10.21-1.57,20.06,5.31,27.44,12.69,12.09,12.09,15.16,21.06,5.05,35h0a13.72,13.72,0,0,0-3.82,9.06L208.81,112a10.64,10.64,0,0,1-11.27,8.44h0a8.54,8.54,0,0,1-7.39-10.51l1.54-17.54c.13-3.39,1.35-9.83.31-8.79L177.64,97.78l-22,22.33c-3.89,3.89-9.81,4.29-13.22.88h0c-3.41-3.41-3-9.33.88-13.23L166,85,154.72,96l-22,22.32c-3.89,3.9-9.81,4.29-13.22.89h0c-3.41-3.41-3-9.33.88-13.23l22.73-22.72L153.29,72.6,128,98.36c-3.9,3.9-9.82,4.29-13.22.88h0c-3.41-3.41-3-9.33.88-13.22l22.72-22.73"/></svg>
