<?xml version="1.0" encoding="utf-8"?>
<!-- Generator: Adobe Illustrator 23.0.4, SVG Export Plug-In . SVG Version: 6.00 Build 0)  -->
<svg version="1.1" id="Layer_1" xmlns="http://www.w3.org/2000/svg" xmlns:xlink="http://www.w3.org/1999/xlink" x="0px" y="0px"
	 viewBox="0 0 240 240" style="enable-background:new 0 0 240 240;" xml:space="preserve">
<style type="text/css">
	.st0{display:none;}
	.st1{display:inline;fill:none;stroke:#FFFFFF;stroke-width:4;stroke-miterlimit:10;}
	.st2{display:inline;}
	.st3{fill:none;stroke:#FFFFFF;stroke-width:4;stroke-linecap:round;stroke-linejoin:round;stroke-miterlimit:10;}
	.st4{display:inline;fill:none;stroke:#FFFFFF;stroke-width:4;stroke-linecap:round;stroke-linejoin:round;stroke-miterlimit:10;}
</style>
<g class="st0">
	<path class="st1" d="M126.5,41.8H63.7c-28.5,0-51.6,23.3-51.6,52v9.9c0,16.1,7.3,30.6,18.7,40.1C24.2,156.1,16.2,168.2,10,170
		c0,0,25.6-4.2,42.7-15.5c3.6,0.8,7.2,1.2,11,1.2h62.8c28.5,0,51.6-23.3,51.6-52v-10C178.1,65.1,155,41.8,126.5,41.8z"/>
	<g class="st2">
		<line class="st3" x1="66.9" y1="81.9" x2="118.7" y2="81.9"/>
		<line class="st3" x1="54.1" y1="107.4" x2="135" y2="107.4"/>
	</g>
</g>
<g id="Conversation_1_" class="st0">
	<path class="st3" d="M122.8,85H178c25.1,0,45.4,20.4,45.4,45.7v8.7c0,14.2-6.4,26.8-16.5,35.2c5.8,10.8,12.8,21.5,18.2,23
		c0,0-22.5-3.7-37.5-13.6c-3.1,0.7-6.3,1.1-9.6,1.1h-55.2c-25.1,0-45.4-20.4-45.4-45.7v-8.7C77.4,105.5,97.8,85,122.8,85z"/>
	<path class="st4" d="M164,85h14c25.1,0,45.4,20.4,45.4,45.7v8.7c0,14.2-6.4,26.8-16.5,35.2c5.8,10.8,12.8,21.5,18.2,23
		c0,0-22.5-3.7-37.5-13.6c-3.1,0.7-6.3,1.1-9.6,1.1h-55.2c-25.1,0-45.4-21.6-45.4-42.7"/>
	<path class="st4" d="M118.6,42.1H63.5c-25.1,0-45.4,20.4-45.4,45.7v8.7c0,14.2,6.4,26.8,16.5,35.2c-5.8,10.8-12.8,21.5-18.2,23
		c0,0,22.5-3.7,37.5-13.6c3.1,0.7,6.3,1.1,9.6,1.1h55.2c25.1,0,45.4-20.4,45.4-45.7v-8.7C164,62.5,143.7,42.1,118.6,42.1z"/>
	<line class="st4" x1="52.2" y1="71.9" x2="133.5" y2="71.9"/>
	<line class="st4" x1="52.2" y1="91.9" x2="133.5" y2="91.9"/>
	<line class="st4" x1="52.2" y1="111.9" x2="97.3" y2="111.9"/>
</g>
<path class="st3" d="M124.5,87.7h55.1c25.1,0,45.4,20.4,45.4,45.7v8.7c0,14.2-6.4,26.8-16.5,35.2c5.8,10.8,12.8,21.5,18.2,23
	c0,0-22.5-3.7-37.5-13.6c-3.1,0.7-6.3,1.1-9.6,1.1h-55.2c-25.1,0-44.3-20.5-44.3-45.8v-8.7C80.2,107.9,99.4,87.7,124.5,87.7z"/>
<path class="st3" d="M72,139.3v-6.5v-2.5v-2.2v-3.2c0.4-6.8,2.3-11.3,4.6-16.8c2.3-5.5,6.6-10.4,10.8-14.5s9-7.5,14.4-9.8
	c5.4-2.3,10.4-3.6,16.7-3.6h13.8H146h13.8h9.8l0.5-0.4c-0.2-3.2-1.3-7.3-3.6-12.8c-2.3-5.5-5.6-10.4-9.8-14.5
	c-4.1-4.1-9-7.5-14.4-9.8c-5.4-2.3-11.4-3.6-17.7-3.6h-13.8H97H83.3H69.5c-6.3,0-12.2,1.3-17.7,3.6s-10.3,5.6-14.4,9.8
	S30,61.5,27.7,67s-3.6,11.5-3.6,17.8V87v2.2v2.2v2.2c0,3.5,0.4,7,1.2,10.3c0.8,3.3,1.9,6.5,3.3,9.5c1.4,3,3.2,5.8,5.2,8.4
	s4.3,4.9,6.8,7c-1.5,2.7-3,5.4-4.5,7.9c-1.6,2.5-3.1,4.9-4.7,7c-1.6,2.1-3.1,3.9-4.6,5.3s-3,2.3-4.3,2.7c0,0,1.4-0.2,3.8-0.7
	c2.3-0.5,5.6-1.3,9.4-2.4c3.8-1.1,8-2.5,12.2-4.2c4.2-1.7,8.4-3.8,12.2-6.3c0.8,0.2,1.6,0.3,2.3,0.5c0.8,0.1,1.6,0.3,2.4,0.3
	c0.8,0.1,1.6,0.2,2.4,0.2c0.8,0,0.6,0.1,1.5,0.1L72,139.3z"/>
</svg>
