<svg id="Layer_1" data-name="Layer 1" xmlns="http://www.w3.org/2000/svg" width="240" height="240" viewBox="0 0 240 240">
  <title>ICONS Sets_v3</title>
  <g id="Bell_ringing" data-name="Bell ringing">
    <path d="M165.5,103.16s-3.33,27.1,2.88,46.67c3.39,10.71,16.12,26.83,16.12,26.83H55.5s12.73-16.12,16.12-26.83c6.21-19.57,2.88-45.67,2.88-45.67l0-2.86a45.53,45.53,0,0,1,91.05,0Z" style="fill: none;stroke: #FFFFFF;stroke-miterlimit: 10;stroke-width: 4px"/>
    <path d="M139.68,178.54a19.68,19.68,0,0,1-39.36,0" style="fill: none;stroke: #FFFFFF;stroke-linecap: round;stroke-linejoin: round;stroke-width: 4px"/>
    <path d="M108.87,54.48A11.51,11.51,0,0,1,120.15,43.2a10.76,10.76,0,0,1,11,11" style="fill: none;stroke: #FFFFFF;stroke-linecap: round;stroke-linejoin: round;stroke-width: 4px"/>
    <path d="M202,58.77a60.67,60.67,0,0,1,0,85.78" style="fill: none;stroke: #FFFFFF;stroke-linecap: round;stroke-linejoin: round;stroke-width: 4px"/>
    <path d="M184.85,75.93a36.38,36.38,0,0,1,0,51.46" style="fill: none;stroke: #FFFFFF;stroke-linecap: round;stroke-linejoin: round;stroke-width: 4px"/>
    <path d="M40.77,144.55a60.66,60.66,0,0,1,0-85.78" style="fill: none;stroke: #FFFFFF;stroke-linecap: round;stroke-linejoin: round;stroke-width: 4px"/>
    <path d="M57.92,127.39a36.38,36.38,0,0,1,0-51.46" style="fill: none;stroke: #FFFFFF;stroke-linecap: round;stroke-linejoin: round;stroke-width: 4px"/>
  </g>
</svg>
